<?xml version="1.0" standalone="no"?>
<svg xmlns:xlink="http://www.w3.org/1999/xlink" id="wave" style="transform:rotate(180deg); transition: 0.3s" viewBox="0 0 1440 170" version="1.1" xmlns="http://www.w3.org/2000/svg"><defs><linearGradient id="sw-gradient-0" x1="0" x2="0" y1="1" y2="0"><stop stop-color="rgba(77.781, 77.781, 77.781, 1)" offset="0%"/><stop stop-color="rgba(77.781, 77.781, 77.781, 1)" offset="100%"/></linearGradient></defs><path style="transform:translate(0, 0px); opacity:1" fill="url(#sw-gradient-0)" d="M0,0L30,0C60,0,120,0,180,19.8C240,40,300,79,360,90.7C420,102,480,85,540,65.2C600,45,660,23,720,11.3C780,0,840,0,900,11.3C960,23,1020,45,1080,65.2C1140,85,1200,102,1260,96.3C1320,91,1380,62,1440,65.2C1500,68,1560,102,1620,113.3C1680,125,1740,113,1800,113.3C1860,113,1920,125,1980,121.8C2040,119,2100,102,2160,85C2220,68,2280,51,2340,51C2400,51,2460,68,2520,62.3C2580,57,2640,28,2700,19.8C2760,11,2820,23,2880,45.3C2940,68,3000,102,3060,96.3C3120,91,3180,45,3240,45.3C3300,45,3360,91,3420,93.5C3480,96,3540,57,3600,59.5C3660,62,3720,108,3780,119C3840,130,3900,108,3960,99.2C4020,91,4080,96,4140,102C4200,108,4260,113,4290,116.2L4320,119L4320,170L4290,170C4260,170,4200,170,4140,170C4080,170,4020,170,3960,170C3900,170,3840,170,3780,170C3720,170,3660,170,3600,170C3540,170,3480,170,3420,170C3360,170,3300,170,3240,170C3180,170,3120,170,3060,170C3000,170,2940,170,2880,170C2820,170,2760,170,2700,170C2640,170,2580,170,2520,170C2460,170,2400,170,2340,170C2280,170,2220,170,2160,170C2100,170,2040,170,1980,170C1920,170,1860,170,1800,170C1740,170,1680,170,1620,170C1560,170,1500,170,1440,170C1380,170,1320,170,1260,170C1200,170,1140,170,1080,170C1020,170,960,170,900,170C840,170,780,170,720,170C660,170,600,170,540,170C480,170,420,170,360,170C300,170,240,170,180,170C120,170,60,170,30,170L0,170Z"/></svg>