<?xml version="1.0" standalone="no"?>
<svg xmlns:xlink="http://www.w3.org/1999/xlink" id="wave" style="transform:rotate(180deg); transition: 0.3s" viewBox="0 0 1440 310" version="1.1" xmlns="http://www.w3.org/2000/svg"><defs><linearGradient id="sw-gradient-0" x1="0" x2="0" y1="1" y2="0"><stop stop-color="rgba(77.781, 77.781, 77.781, 1)" offset="0%"/><stop stop-color="rgba(77.781, 77.781, 77.781, 1)" offset="100%"/></linearGradient></defs><path style="transform:translate(0, 0px); opacity:1" fill="url(#sw-gradient-0)" d="M0,155L80,134.3C160,114,320,72,480,67.2C640,62,800,93,960,87.8C1120,83,1280,41,1440,51.7C1600,62,1760,124,1920,149.8C2080,176,2240,165,2400,170.5C2560,176,2720,196,2880,191.2C3040,186,3200,155,3360,129.2C3520,103,3680,83,3840,108.5C4000,134,4160,207,4320,211.8C4480,217,4640,155,4800,124C4960,93,5120,93,5280,77.5C5440,62,5600,31,5760,62C5920,93,6080,186,6240,211.8C6400,238,6560,196,6720,170.5C6880,145,7040,134,7200,124C7360,114,7520,103,7680,124C7840,145,8000,196,8160,186C8320,176,8480,103,8640,87.8C8800,72,8960,114,9120,149.8C9280,186,9440,217,9600,206.7C9760,196,9920,145,10080,108.5C10240,72,10400,52,10560,41.3C10720,31,10880,31,11040,41.3C11200,52,11360,72,11440,82.7L11520,93L11520,310L11440,310C11360,310,11200,310,11040,310C10880,310,10720,310,10560,310C10400,310,10240,310,10080,310C9920,310,9760,310,9600,310C9440,310,9280,310,9120,310C8960,310,8800,310,8640,310C8480,310,8320,310,8160,310C8000,310,7840,310,7680,310C7520,310,7360,310,7200,310C7040,310,6880,310,6720,310C6560,310,6400,310,6240,310C6080,310,5920,310,5760,310C5600,310,5440,310,5280,310C5120,310,4960,310,4800,310C4640,310,4480,310,4320,310C4160,310,4000,310,3840,310C3680,310,3520,310,3360,310C3200,310,3040,310,2880,310C2720,310,2560,310,2400,310C2240,310,2080,310,1920,310C1760,310,1600,310,1440,310C1280,310,1120,310,960,310C800,310,640,310,480,310C320,310,160,310,80,310L0,310Z"/></svg>