<?xml version="1.0" standalone="no"?>
<svg xmlns:xlink="http://www.w3.org/1999/xlink" id="wave" style="transform:rotate(180deg); transition: 0.3s" viewBox="0 0 1440 290" version="1.1" xmlns="http://www.w3.org/2000/svg"><defs><linearGradient id="sw-gradient-0" x1="0" x2="0" y1="1" y2="0"><stop stop-color="rgba(65, 105, 239, 1)" offset="0%"/><stop stop-color="rgba(30, 144, 255, 1)" offset="100%"/></linearGradient></defs><path style="transform:translate(0, 0px); opacity:1" fill="url(#sw-gradient-0)" d="M0,116L48,130.5C96,145,192,174,288,169.2C384,164,480,126,576,135.3C672,145,768,203,864,198.2C960,193,1056,126,1152,125.7C1248,126,1344,193,1440,183.7C1536,174,1632,87,1728,53.2C1824,19,1920,39,2016,67.7C2112,97,2208,135,2304,145C2400,155,2496,135,2592,130.5C2688,126,2784,135,2880,145C2976,155,3072,164,3168,154.7C3264,145,3360,116,3456,101.5C3552,87,3648,87,3744,91.8C3840,97,3936,106,4032,96.7C4128,87,4224,58,4320,58C4416,58,4512,87,4608,120.8C4704,155,4800,193,4896,217.5C4992,242,5088,251,5184,227.2C5280,203,5376,145,5472,101.5C5568,58,5664,29,5760,48.3C5856,68,5952,135,6048,178.8C6144,222,6240,242,6336,251.3C6432,261,6528,261,6624,246.5C6720,232,6816,203,6864,188.5L6912,174L6912,290L6864,290C6816,290,6720,290,6624,290C6528,290,6432,290,6336,290C6240,290,6144,290,6048,290C5952,290,5856,290,5760,290C5664,290,5568,290,5472,290C5376,290,5280,290,5184,290C5088,290,4992,290,4896,290C4800,290,4704,290,4608,290C4512,290,4416,290,4320,290C4224,290,4128,290,4032,290C3936,290,3840,290,3744,290C3648,290,3552,290,3456,290C3360,290,3264,290,3168,290C3072,290,2976,290,2880,290C2784,290,2688,290,2592,290C2496,290,2400,290,2304,290C2208,290,2112,290,2016,290C1920,290,1824,290,1728,290C1632,290,1536,290,1440,290C1344,290,1248,290,1152,290C1056,290,960,290,864,290C768,290,672,290,576,290C480,290,384,290,288,290C192,290,96,290,48,290L0,290Z"/></svg>